<?xml version="1.0" encoding="utf-8" standalone="no"?>
<!DOCTYPE svg PUBLIC "-//W3C//DTD SVG 1.1//EN"
  "http://www.w3.org/Graphics/SVG/1.1/DTD/svg11.dtd">
<svg xmlns:xlink="http://www.w3.org/1999/xlink" width="288pt" height="144pt" viewBox="0 0 288 144" xmlns="http://www.w3.org/2000/svg" version="1.1">
 <metadata>
  <rdf:RDF xmlns:dc="http://purl.org/dc/elements/1.1/" xmlns:cc="http://creativecommons.org/ns#" xmlns:rdf="http://www.w3.org/1999/02/22-rdf-syntax-ns#">
   <cc:Work>
    <dc:type rdf:resource="http://purl.org/dc/dcmitype/StillImage"/>
    <dc:date>2024-12-02T09:49:25.041858</dc:date>
    <dc:format>image/svg+xml</dc:format>
    <dc:creator>
     <cc:Agent>
      <dc:title>Matplotlib v3.9.3, https://matplotlib.org/</dc:title>
     </cc:Agent>
    </dc:creator>
   </cc:Work>
  </rdf:RDF>
 </metadata>
 <defs>
  <style type="text/css">*{stroke-linejoin: round; stroke-linecap: butt}</style>
 </defs>
 <g id="figure_1">
  <g id="patch_1">
   <path d="M 0 144 
L 288 144 
L 288 0 
L 0 0 
z
" style="fill: #ffffff"/>
  </g>
  <g id="axes_1">
   <g id="patch_2">
    <path d="M 36 128.16 
L 259.2 128.16 
L 259.2 17.28 
L 36 17.28 
z
" style="fill: #ffffff"/>
   </g>
   <g id="matplotlib.axis_1">
    <g id="xtick_1">
     <g id="line2d_1">
      <defs>
       <path id="mc57a9bacd7" d="M 0 0 
L 0 3.5 
" style="stroke: #000000; stroke-width: 0.8"/>
      </defs>
      <g>
       <use xlink:href="#mc57a9bacd7" x="36" y="128.16" style="stroke: #000000; stroke-width: 0.8"/>
      </g>
     </g>
     <g id="text_1">
      <!-- 0 -->
      <g transform="translate(32.025028 144.654248) scale(0.12495 -0.12495)">
       <defs>
        <path id="DejaVuSans-30" d="M 2034 4250 
Q 1547 4250 1301 3770 
Q 1056 3291 1056 2328 
Q 1056 1369 1301 889 
Q 1547 409 2034 409 
Q 2525 409 2770 889 
Q 3016 1369 3016 2328 
Q 3016 3291 2770 3770 
Q 2525 4250 2034 4250 
z
M 2034 4750 
Q 2819 4750 3233 4129 
Q 3647 3509 3647 2328 
Q 3647 1150 3233 529 
Q 2819 -91 2034 -91 
Q 1250 -91 836 529 
Q 422 1150 422 2328 
Q 422 3509 836 4129 
Q 1250 4750 2034 4750 
z
" transform="scale(0.015625)"/>
       </defs>
       <use xlink:href="#DejaVuSans-30"/>
      </g>
     </g>
    </g>
    <g id="xtick_2">
     <g id="line2d_2">
      <g>
       <use xlink:href="#mc57a9bacd7" x="142.285714" y="128.16" style="stroke: #000000; stroke-width: 0.8"/>
      </g>
     </g>
     <g id="text_2">
      <!-- 50 -->
      <g transform="translate(134.335771 144.654248) scale(0.12495 -0.12495)">
       <defs>
        <path id="DejaVuSans-35" d="M 691 4666 
L 3169 4666 
L 3169 4134 
L 1269 4134 
L 1269 2991 
Q 1406 3038 1543 3061 
Q 1681 3084 1819 3084 
Q 2600 3084 3056 2656 
Q 3513 2228 3513 1497 
Q 3513 744 3044 326 
Q 2575 -91 1722 -91 
Q 1428 -91 1123 -41 
Q 819 9 494 109 
L 494 744 
Q 775 591 1075 516 
Q 1375 441 1709 441 
Q 2250 441 2565 725 
Q 2881 1009 2881 1497 
Q 2881 1984 2565 2268 
Q 2250 2553 1709 2553 
Q 1456 2553 1204 2497 
Q 953 2441 691 2322 
L 691 4666 
z
" transform="scale(0.015625)"/>
       </defs>
       <use xlink:href="#DejaVuSans-35"/>
       <use xlink:href="#DejaVuSans-30" x="63.623047"/>
      </g>
     </g>
    </g>
    <g id="xtick_3">
     <g id="line2d_3">
      <g>
       <use xlink:href="#mc57a9bacd7" x="248.571429" y="128.16" style="stroke: #000000; stroke-width: 0.8"/>
      </g>
     </g>
     <g id="text_3">
      <!-- 100 -->
      <g transform="translate(236.646513 144.654248) scale(0.12495 -0.12495)">
       <defs>
        <path id="DejaVuSans-31" d="M 794 531 
L 1825 531 
L 1825 4091 
L 703 3866 
L 703 4441 
L 1819 4666 
L 2450 4666 
L 2450 531 
L 3481 531 
L 3481 0 
L 794 0 
L 794 531 
z
" transform="scale(0.015625)"/>
       </defs>
       <use xlink:href="#DejaVuSans-31"/>
       <use xlink:href="#DejaVuSans-30" x="63.623047"/>
       <use xlink:href="#DejaVuSans-30" x="127.246094"/>
      </g>
     </g>
    </g>
    <g id="text_4">
     <!-- Time since push (sec) -->
     <g transform="translate(65.94375 162.650473) scale(0.15 -0.15)">
      <defs>
       <path id="DejaVuSans-54" d="M -19 4666 
L 3928 4666 
L 3928 4134 
L 2272 4134 
L 2272 0 
L 1638 0 
L 1638 4134 
L -19 4134 
L -19 4666 
z
" transform="scale(0.015625)"/>
       <path id="DejaVuSans-69" d="M 603 3500 
L 1178 3500 
L 1178 0 
L 603 0 
L 603 3500 
z
M 603 4863 
L 1178 4863 
L 1178 4134 
L 603 4134 
L 603 4863 
z
" transform="scale(0.015625)"/>
       <path id="DejaVuSans-6d" d="M 3328 2828 
Q 3544 3216 3844 3400 
Q 4144 3584 4550 3584 
Q 5097 3584 5394 3201 
Q 5691 2819 5691 2113 
L 5691 0 
L 5113 0 
L 5113 2094 
Q 5113 2597 4934 2840 
Q 4756 3084 4391 3084 
Q 3944 3084 3684 2787 
Q 3425 2491 3425 1978 
L 3425 0 
L 2847 0 
L 2847 2094 
Q 2847 2600 2669 2842 
Q 2491 3084 2119 3084 
Q 1678 3084 1418 2786 
Q 1159 2488 1159 1978 
L 1159 0 
L 581 0 
L 581 3500 
L 1159 3500 
L 1159 2956 
Q 1356 3278 1631 3431 
Q 1906 3584 2284 3584 
Q 2666 3584 2933 3390 
Q 3200 3197 3328 2828 
z
" transform="scale(0.015625)"/>
       <path id="DejaVuSans-65" d="M 3597 1894 
L 3597 1613 
L 953 1613 
Q 991 1019 1311 708 
Q 1631 397 2203 397 
Q 2534 397 2845 478 
Q 3156 559 3463 722 
L 3463 178 
Q 3153 47 2828 -22 
Q 2503 -91 2169 -91 
Q 1331 -91 842 396 
Q 353 884 353 1716 
Q 353 2575 817 3079 
Q 1281 3584 2069 3584 
Q 2775 3584 3186 3129 
Q 3597 2675 3597 1894 
z
M 3022 2063 
Q 3016 2534 2758 2815 
Q 2500 3097 2075 3097 
Q 1594 3097 1305 2825 
Q 1016 2553 972 2059 
L 3022 2063 
z
" transform="scale(0.015625)"/>
       <path id="DejaVuSans-20" transform="scale(0.015625)"/>
       <path id="DejaVuSans-73" d="M 2834 3397 
L 2834 2853 
Q 2591 2978 2328 3040 
Q 2066 3103 1784 3103 
Q 1356 3103 1142 2972 
Q 928 2841 928 2578 
Q 928 2378 1081 2264 
Q 1234 2150 1697 2047 
L 1894 2003 
Q 2506 1872 2764 1633 
Q 3022 1394 3022 966 
Q 3022 478 2636 193 
Q 2250 -91 1575 -91 
Q 1294 -91 989 -36 
Q 684 19 347 128 
L 347 722 
Q 666 556 975 473 
Q 1284 391 1588 391 
Q 1994 391 2212 530 
Q 2431 669 2431 922 
Q 2431 1156 2273 1281 
Q 2116 1406 1581 1522 
L 1381 1569 
Q 847 1681 609 1914 
Q 372 2147 372 2553 
Q 372 3047 722 3315 
Q 1072 3584 1716 3584 
Q 2034 3584 2315 3537 
Q 2597 3491 2834 3397 
z
" transform="scale(0.015625)"/>
       <path id="DejaVuSans-6e" d="M 3513 2113 
L 3513 0 
L 2938 0 
L 2938 2094 
Q 2938 2591 2744 2837 
Q 2550 3084 2163 3084 
Q 1697 3084 1428 2787 
Q 1159 2491 1159 1978 
L 1159 0 
L 581 0 
L 581 3500 
L 1159 3500 
L 1159 2956 
Q 1366 3272 1645 3428 
Q 1925 3584 2291 3584 
Q 2894 3584 3203 3211 
Q 3513 2838 3513 2113 
z
" transform="scale(0.015625)"/>
       <path id="DejaVuSans-63" d="M 3122 3366 
L 3122 2828 
Q 2878 2963 2633 3030 
Q 2388 3097 2138 3097 
Q 1578 3097 1268 2742 
Q 959 2388 959 1747 
Q 959 1106 1268 751 
Q 1578 397 2138 397 
Q 2388 397 2633 464 
Q 2878 531 3122 666 
L 3122 134 
Q 2881 22 2623 -34 
Q 2366 -91 2075 -91 
Q 1284 -91 818 406 
Q 353 903 353 1747 
Q 353 2603 823 3093 
Q 1294 3584 2113 3584 
Q 2378 3584 2631 3529 
Q 2884 3475 3122 3366 
z
" transform="scale(0.015625)"/>
       <path id="DejaVuSans-70" d="M 1159 525 
L 1159 -1331 
L 581 -1331 
L 581 3500 
L 1159 3500 
L 1159 2969 
Q 1341 3281 1617 3432 
Q 1894 3584 2278 3584 
Q 2916 3584 3314 3078 
Q 3713 2572 3713 1747 
Q 3713 922 3314 415 
Q 2916 -91 2278 -91 
Q 1894 -91 1617 61 
Q 1341 213 1159 525 
z
M 3116 1747 
Q 3116 2381 2855 2742 
Q 2594 3103 2138 3103 
Q 1681 3103 1420 2742 
Q 1159 2381 1159 1747 
Q 1159 1113 1420 752 
Q 1681 391 2138 391 
Q 2594 391 2855 752 
Q 3116 1113 3116 1747 
z
" transform="scale(0.015625)"/>
       <path id="DejaVuSans-75" d="M 544 1381 
L 544 3500 
L 1119 3500 
L 1119 1403 
Q 1119 906 1312 657 
Q 1506 409 1894 409 
Q 2359 409 2629 706 
Q 2900 1003 2900 1516 
L 2900 3500 
L 3475 3500 
L 3475 0 
L 2900 0 
L 2900 538 
Q 2691 219 2414 64 
Q 2138 -91 1772 -91 
Q 1169 -91 856 284 
Q 544 659 544 1381 
z
M 1991 3584 
L 1991 3584 
z
" transform="scale(0.015625)"/>
       <path id="DejaVuSans-68" d="M 3513 2113 
L 3513 0 
L 2938 0 
L 2938 2094 
Q 2938 2591 2744 2837 
Q 2550 3084 2163 3084 
Q 1697 3084 1428 2787 
Q 1159 2491 1159 1978 
L 1159 0 
L 581 0 
L 581 4863 
L 1159 4863 
L 1159 2956 
Q 1366 3272 1645 3428 
Q 1925 3584 2291 3584 
Q 2894 3584 3203 3211 
Q 3513 2838 3513 2113 
z
" transform="scale(0.015625)"/>
       <path id="DejaVuSans-28" d="M 1984 4856 
Q 1566 4138 1362 3434 
Q 1159 2731 1159 2009 
Q 1159 1288 1364 580 
Q 1569 -128 1984 -844 
L 1484 -844 
Q 1016 -109 783 600 
Q 550 1309 550 2009 
Q 550 2706 781 3412 
Q 1013 4119 1484 4856 
L 1984 4856 
z
" transform="scale(0.015625)"/>
       <path id="DejaVuSans-29" d="M 513 4856 
L 1013 4856 
Q 1481 4119 1714 3412 
Q 1947 2706 1947 2009 
Q 1947 1309 1714 600 
Q 1481 -109 1013 -844 
L 513 -844 
Q 928 -128 1133 580 
Q 1338 1288 1338 2009 
Q 1338 2731 1133 3434 
Q 928 4138 513 4856 
z
" transform="scale(0.015625)"/>
      </defs>
      <use xlink:href="#DejaVuSans-54"/>
      <use xlink:href="#DejaVuSans-69" x="57.958984"/>
      <use xlink:href="#DejaVuSans-6d" x="85.742188"/>
      <use xlink:href="#DejaVuSans-65" x="183.154297"/>
      <use xlink:href="#DejaVuSans-20" x="244.677734"/>
      <use xlink:href="#DejaVuSans-73" x="276.464844"/>
      <use xlink:href="#DejaVuSans-69" x="328.564453"/>
      <use xlink:href="#DejaVuSans-6e" x="356.347656"/>
      <use xlink:href="#DejaVuSans-63" x="419.726562"/>
      <use xlink:href="#DejaVuSans-65" x="474.707031"/>
      <use xlink:href="#DejaVuSans-20" x="536.230469"/>
      <use xlink:href="#DejaVuSans-70" x="568.017578"/>
      <use xlink:href="#DejaVuSans-75" x="631.494141"/>
      <use xlink:href="#DejaVuSans-73" x="694.873047"/>
      <use xlink:href="#DejaVuSans-68" x="746.972656"/>
      <use xlink:href="#DejaVuSans-20" x="810.351562"/>
      <use xlink:href="#DejaVuSans-28" x="842.138672"/>
      <use xlink:href="#DejaVuSans-73" x="881.152344"/>
      <use xlink:href="#DejaVuSans-65" x="933.251953"/>
      <use xlink:href="#DejaVuSans-63" x="994.775391"/>
      <use xlink:href="#DejaVuSans-29" x="1049.755859"/>
     </g>
    </g>
   </g>
   <g id="matplotlib.axis_2">
    <g id="ytick_1">
     <g id="line2d_4">
      <defs>
       <path id="m04db1d4234" d="M 0 0 
L -3.5 0 
" style="stroke: #000000; stroke-width: 0.8"/>
      </defs>
      <g>
       <use xlink:href="#m04db1d4234" x="36" y="128.16" style="stroke: #000000; stroke-width: 0.8"/>
      </g>
     </g>
     <g id="text_5">
      <!-- 0 -->
      <g transform="translate(21.050056 132.907124) scale(0.12495 -0.12495)">
       <use xlink:href="#DejaVuSans-30"/>
      </g>
     </g>
    </g>
    <g id="ytick_2">
     <g id="line2d_5">
      <g>
       <use xlink:href="#m04db1d4234" x="36" y="17.28" style="stroke: #000000; stroke-width: 0.8"/>
      </g>
     </g>
     <g id="text_6">
      <!-- 1 -->
      <g transform="translate(21.050056 22.027124) scale(0.12495 -0.12495)">
       <use xlink:href="#DejaVuSans-31"/>
      </g>
     </g>
    </g>
    <g id="text_7">
     <!-- Food availability -->
     <g transform="translate(13.930525 133.870781) rotate(-90) scale(0.15 -0.15)">
      <defs>
       <path id="DejaVuSans-46" d="M 628 4666 
L 3309 4666 
L 3309 4134 
L 1259 4134 
L 1259 2759 
L 3109 2759 
L 3109 2228 
L 1259 2228 
L 1259 0 
L 628 0 
L 628 4666 
z
" transform="scale(0.015625)"/>
       <path id="DejaVuSans-6f" d="M 1959 3097 
Q 1497 3097 1228 2736 
Q 959 2375 959 1747 
Q 959 1119 1226 758 
Q 1494 397 1959 397 
Q 2419 397 2687 759 
Q 2956 1122 2956 1747 
Q 2956 2369 2687 2733 
Q 2419 3097 1959 3097 
z
M 1959 3584 
Q 2709 3584 3137 3096 
Q 3566 2609 3566 1747 
Q 3566 888 3137 398 
Q 2709 -91 1959 -91 
Q 1206 -91 779 398 
Q 353 888 353 1747 
Q 353 2609 779 3096 
Q 1206 3584 1959 3584 
z
" transform="scale(0.015625)"/>
       <path id="DejaVuSans-64" d="M 2906 2969 
L 2906 4863 
L 3481 4863 
L 3481 0 
L 2906 0 
L 2906 525 
Q 2725 213 2448 61 
Q 2172 -91 1784 -91 
Q 1150 -91 751 415 
Q 353 922 353 1747 
Q 353 2572 751 3078 
Q 1150 3584 1784 3584 
Q 2172 3584 2448 3432 
Q 2725 3281 2906 2969 
z
M 947 1747 
Q 947 1113 1208 752 
Q 1469 391 1925 391 
Q 2381 391 2643 752 
Q 2906 1113 2906 1747 
Q 2906 2381 2643 2742 
Q 2381 3103 1925 3103 
Q 1469 3103 1208 2742 
Q 947 2381 947 1747 
z
" transform="scale(0.015625)"/>
       <path id="DejaVuSans-61" d="M 2194 1759 
Q 1497 1759 1228 1600 
Q 959 1441 959 1056 
Q 959 750 1161 570 
Q 1363 391 1709 391 
Q 2188 391 2477 730 
Q 2766 1069 2766 1631 
L 2766 1759 
L 2194 1759 
z
M 3341 1997 
L 3341 0 
L 2766 0 
L 2766 531 
Q 2569 213 2275 61 
Q 1981 -91 1556 -91 
Q 1019 -91 701 211 
Q 384 513 384 1019 
Q 384 1609 779 1909 
Q 1175 2209 1959 2209 
L 2766 2209 
L 2766 2266 
Q 2766 2663 2505 2880 
Q 2244 3097 1772 3097 
Q 1472 3097 1187 3025 
Q 903 2953 641 2809 
L 641 3341 
Q 956 3463 1253 3523 
Q 1550 3584 1831 3584 
Q 2591 3584 2966 3190 
Q 3341 2797 3341 1997 
z
" transform="scale(0.015625)"/>
       <path id="DejaVuSans-76" d="M 191 3500 
L 800 3500 
L 1894 563 
L 2988 3500 
L 3597 3500 
L 2284 0 
L 1503 0 
L 191 3500 
z
" transform="scale(0.015625)"/>
       <path id="DejaVuSans-6c" d="M 603 4863 
L 1178 4863 
L 1178 0 
L 603 0 
L 603 4863 
z
" transform="scale(0.015625)"/>
       <path id="DejaVuSans-62" d="M 3116 1747 
Q 3116 2381 2855 2742 
Q 2594 3103 2138 3103 
Q 1681 3103 1420 2742 
Q 1159 2381 1159 1747 
Q 1159 1113 1420 752 
Q 1681 391 2138 391 
Q 2594 391 2855 752 
Q 3116 1113 3116 1747 
z
M 1159 2969 
Q 1341 3281 1617 3432 
Q 1894 3584 2278 3584 
Q 2916 3584 3314 3078 
Q 3713 2572 3713 1747 
Q 3713 922 3314 415 
Q 2916 -91 2278 -91 
Q 1894 -91 1617 61 
Q 1341 213 1159 525 
L 1159 0 
L 581 0 
L 581 4863 
L 1159 4863 
L 1159 2969 
z
" transform="scale(0.015625)"/>
       <path id="DejaVuSans-74" d="M 1172 4494 
L 1172 3500 
L 2356 3500 
L 2356 3053 
L 1172 3053 
L 1172 1153 
Q 1172 725 1289 603 
Q 1406 481 1766 481 
L 2356 481 
L 2356 0 
L 1766 0 
Q 1100 0 847 248 
Q 594 497 594 1153 
L 594 3053 
L 172 3053 
L 172 3500 
L 594 3500 
L 594 4494 
L 1172 4494 
z
" transform="scale(0.015625)"/>
       <path id="DejaVuSans-79" d="M 2059 -325 
Q 1816 -950 1584 -1140 
Q 1353 -1331 966 -1331 
L 506 -1331 
L 506 -850 
L 844 -850 
Q 1081 -850 1212 -737 
Q 1344 -625 1503 -206 
L 1606 56 
L 191 3500 
L 800 3500 
L 1894 763 
L 2988 3500 
L 3597 3500 
L 2059 -325 
z
" transform="scale(0.015625)"/>
      </defs>
      <use xlink:href="#DejaVuSans-46"/>
      <use xlink:href="#DejaVuSans-6f" x="53.894531"/>
      <use xlink:href="#DejaVuSans-6f" x="115.076172"/>
      <use xlink:href="#DejaVuSans-64" x="176.257812"/>
      <use xlink:href="#DejaVuSans-20" x="239.734375"/>
      <use xlink:href="#DejaVuSans-61" x="271.521484"/>
      <use xlink:href="#DejaVuSans-76" x="332.800781"/>
      <use xlink:href="#DejaVuSans-61" x="391.980469"/>
      <use xlink:href="#DejaVuSans-69" x="453.259766"/>
      <use xlink:href="#DejaVuSans-6c" x="481.042969"/>
      <use xlink:href="#DejaVuSans-61" x="508.826172"/>
      <use xlink:href="#DejaVuSans-62" x="570.105469"/>
      <use xlink:href="#DejaVuSans-69" x="633.582031"/>
      <use xlink:href="#DejaVuSans-6c" x="661.365234"/>
      <use xlink:href="#DejaVuSans-69" x="689.148438"/>
      <use xlink:href="#DejaVuSans-74" x="716.931641"/>
      <use xlink:href="#DejaVuSans-79" x="756.140625"/>
     </g>
    </g>
   </g>
   <g id="line2d_6">
    <path d="M 36 128.16 
L 38.147186 120.939187 
L 40.294372 114.188613 
L 42.441558 107.877655 
L 44.588745 101.977685 
L 46.735931 96.461937 
L 48.883117 91.305389 
L 51.030303 86.48465 
L 53.177489 81.977852 
L 55.324675 77.764548 
L 57.471861 73.825627 
L 59.619048 70.143219 
L 61.766234 66.700619 
L 63.91342 63.482211 
L 66.060606 60.473395 
L 68.207792 57.660521 
L 70.354978 55.03083 
L 72.502165 52.572391 
L 74.649351 50.274053 
L 76.796537 48.125388 
L 78.943723 46.116651 
L 81.090909 44.238728 
L 83.238095 42.483101 
L 85.385281 40.841805 
L 87.532468 39.307395 
L 89.679654 37.87291 
L 91.82684 36.531843 
L 93.974026 35.278109 
L 96.121212 34.106023 
L 98.268398 33.010265 
L 100.415584 31.985867 
L 102.562771 31.02818 
L 104.709957 30.13286 
L 106.857143 29.295846 
L 109.004329 28.513341 
L 111.151515 27.781795 
L 113.298701 27.097889 
L 115.445887 26.458521 
L 117.593074 25.86079 
L 119.74026 25.301985 
L 121.887446 24.779571 
L 124.034632 24.291178 
L 126.181818 23.834591 
L 128.329004 23.407738 
L 130.47619 23.008682 
L 132.623377 22.635615 
L 134.770563 22.286842 
L 136.917749 21.960783 
L 139.064935 21.655957 
L 141.212121 21.370983 
L 143.359307 21.104567 
L 145.506494 20.8555 
L 147.65368 20.622654 
L 149.800866 20.404971 
L 151.948052 20.201464 
L 154.095238 20.01121 
L 156.242424 19.833346 
L 158.38961 19.667065 
L 160.536797 19.511613 
L 162.683983 19.366284 
L 164.831169 19.23042 
L 166.978355 19.103403 
L 169.125541 18.984658 
L 171.272727 18.873646 
L 173.419913 18.769863 
L 175.5671 18.672839 
L 177.714286 18.582134 
L 179.861472 18.497335 
L 182.008658 18.418059 
L 184.155844 18.343945 
L 186.30303 18.274658 
L 188.450216 18.209883 
L 190.597403 18.149327 
L 192.744589 18.092714 
L 194.891775 18.039788 
L 197.038961 17.990308 
L 199.186147 17.944051 
L 201.333333 17.900806 
L 203.480519 17.860377 
L 205.627706 17.822582 
L 207.774892 17.787247 
L 209.922078 17.754214 
L 212.069264 17.723332 
L 214.21645 17.694461 
L 216.363636 17.66747 
L 218.510823 17.642237 
L 220.658009 17.618647 
L 222.805195 17.596593 
L 224.952381 17.575976 
L 227.099567 17.556701 
L 229.246753 17.538682 
L 231.393939 17.521835 
L 233.541126 17.506086 
L 235.688312 17.491363 
L 237.835498 17.477599 
L 239.982684 17.46473 
L 242.12987 17.4527 
L 244.277056 17.441454 
L 246.424242 17.430939 
L 248.571429 17.42111 
" clip-path="url(#pe56682171c)" style="fill: none; stroke: #1f77b4; stroke-width: 2; stroke-linecap: square"/>
   </g>
   <g id="line2d_7">
    <path d="M 36 128.16 
L 38.147186 122.952901 
L 40.294372 117.990336 
L 42.441558 113.260821 
L 44.588745 108.753411 
L 46.735931 104.457677 
L 48.883117 100.363676 
L 51.030303 96.461937 
L 53.177489 92.743429 
L 55.324675 89.199548 
L 57.471861 85.822093 
L 59.619048 82.603249 
L 61.766234 79.535567 
L 63.91342 76.611948 
L 66.060606 73.825627 
L 68.207792 71.170155 
L 70.354978 68.639389 
L 72.502165 66.227472 
L 74.649351 63.928822 
L 76.796537 61.73812 
L 78.943723 59.650297 
L 81.090909 57.660521 
L 83.238095 55.764189 
L 85.385281 53.956911 
L 87.532468 52.234506 
L 89.679654 50.592987 
L 91.82684 49.028557 
L 93.974026 47.537595 
L 96.121212 46.116651 
L 98.268398 44.762437 
L 100.415584 43.471819 
L 102.562771 42.24181 
L 104.709957 41.069564 
L 106.857143 39.952369 
L 109.004329 38.887639 
L 111.151515 37.87291 
L 113.298701 36.905835 
L 115.445887 35.984175 
L 117.593074 35.105798 
L 119.74026 34.26867 
L 121.887446 33.470856 
L 124.034632 32.710508 
L 126.181818 31.985867 
L 128.329004 31.295256 
L 130.47619 30.637078 
L 132.623377 30.009809 
L 134.770563 29.411997 
L 136.917749 28.842259 
L 139.064935 28.299277 
L 141.212121 27.781795 
L 143.359307 27.288614 
L 145.506494 26.818594 
L 147.65368 26.370647 
L 149.800866 25.943736 
L 151.948052 25.536873 
L 154.095238 25.149117 
L 156.242424 24.779571 
L 158.38961 24.42738 
L 160.536797 24.091727 
L 162.683983 23.771838 
L 164.831169 23.466971 
L 166.978355 23.176421 
L 169.125541 22.899516 
L 171.272727 22.635615 
L 173.419913 22.384107 
L 175.5671 22.14441 
L 177.714286 21.91597 
L 179.861472 21.698257 
L 182.008658 21.490769 
L 184.155844 21.293025 
L 186.30303 21.104567 
L 188.450216 20.924959 
L 190.597403 20.753786 
L 192.744589 20.590652 
L 194.891775 20.435178 
L 197.038961 20.287006 
L 199.186147 20.145792 
L 201.333333 20.01121 
L 203.480519 19.882948 
L 205.627706 19.76071 
L 207.774892 19.644212 
L 209.922078 19.533185 
L 212.069264 19.427372 
L 214.21645 19.326528 
L 216.363636 19.23042 
L 218.510823 19.138825 
L 220.658009 19.051531 
L 222.805195 18.968338 
L 224.952381 18.889051 
L 227.099567 18.813487 
L 229.246753 18.741472 
L 231.393939 18.672839 
L 233.541126 18.607429 
L 235.688312 18.545091 
L 237.835498 18.48568 
L 239.982684 18.42906 
L 242.12987 18.375098 
L 244.277056 18.323671 
L 246.424242 18.274658 
L 248.571429 18.227947 
" clip-path="url(#pe56682171c)" style="fill: none; stroke: #ff7f0e; stroke-width: 2; stroke-linecap: square"/>
   </g>
   <g id="line2d_8">
    <path d="M 36 128.16 
L 38.147186 125.005735 
L 40.294372 121.941201 
L 42.441558 118.963846 
L 44.588745 116.071189 
L 46.735931 113.260821 
L 48.883117 110.530401 
L 51.030303 107.877655 
L 53.177489 105.300373 
L 55.324675 102.796409 
L 57.471861 100.363676 
L 59.619048 98.000149 
L 61.766234 95.703858 
L 63.91342 93.472891 
L 66.060606 91.305389 
L 68.207792 89.199548 
L 70.354978 87.153612 
L 72.502165 85.165879 
L 74.649351 83.234692 
L 76.796537 81.358442 
L 78.943723 79.535567 
L 81.090909 77.764548 
L 83.238095 76.043911 
L 85.385281 74.372221 
L 87.532468 72.748087 
L 89.679654 71.170155 
L 91.82684 69.637112 
L 93.974026 68.14768 
L 96.121212 66.700619 
L 98.268398 65.294723 
L 100.415584 63.928822 
L 102.562771 62.601777 
L 104.709957 61.312483 
L 106.857143 60.059867 
L 109.004329 58.842884 
L 111.151515 57.660521 
L 113.298701 56.511794 
L 115.445887 55.395746 
L 117.593074 54.311446 
L 119.74026 53.257992 
L 121.887446 52.234506 
L 124.034632 51.240136 
L 126.181818 50.274053 
L 128.329004 49.335453 
L 130.47619 48.423553 
L 132.623377 47.537595 
L 134.770563 46.676841 
L 136.917749 45.840572 
L 139.064935 45.028094 
L 141.212121 44.238728 
L 143.359307 43.471819 
L 145.506494 42.726725 
L 147.65368 42.002828 
L 149.800866 41.299524 
L 151.948052 40.616227 
L 154.095238 39.952369 
L 156.242424 39.307395 
L 158.38961 38.68077 
L 160.536797 38.07197 
L 162.683983 37.480489 
L 164.831169 36.905835 
L 166.978355 36.347528 
L 169.125541 35.805103 
L 171.272727 35.278109 
L 173.419913 34.766107 
L 175.5671 34.26867 
L 177.714286 33.785384 
L 179.861472 33.315846 
L 182.008658 32.859666 
L 184.155844 32.416462 
L 186.30303 31.985867 
L 188.450216 31.567521 
L 190.597403 31.161076 
L 192.744589 30.766193 
L 194.891775 30.382544 
L 197.038961 30.009809 
L 199.186147 29.647677 
L 201.333333 29.295846 
L 203.480519 28.954025 
L 205.627706 28.621927 
L 207.774892 28.299277 
L 209.922078 27.985806 
L 212.069264 27.681252 
L 214.21645 27.385362 
L 216.363636 27.097889 
L 218.510823 26.818594 
L 220.658009 26.547244 
L 222.805195 26.283614 
L 224.952381 26.027483 
L 227.099567 25.778638 
L 229.246753 25.536873 
L 231.393939 25.301985 
L 233.541126 25.073779 
L 235.688312 24.852065 
L 237.835498 24.636659 
L 239.982684 24.42738 
L 242.12987 24.224054 
L 244.277056 24.026513 
L 246.424242 23.834591 
L 248.571429 23.648129 
" clip-path="url(#pe56682171c)" style="fill: none; stroke: #2ca02c; stroke-width: 2; stroke-linecap: square"/>
   </g>
   <g id="patch_3">
    <path d="M 36 128.16 
L 36 17.28 
" style="fill: none; stroke: #000000; stroke-width: 0.8; stroke-linejoin: miter; stroke-linecap: square"/>
   </g>
   <g id="patch_4">
    <path d="M 36 128.16 
L 259.2 128.16 
" style="fill: none; stroke: #000000; stroke-width: 0.8; stroke-linejoin: miter; stroke-linecap: square"/>
   </g>
   <g id="legend_1">
    <g id="patch_5">
     <path d="M 175.32536 121.9125 
L 250.4535 121.9125 
Q 252.9525 121.9125 252.9525 119.4135 
L 252.9525 65.642048 
Q 252.9525 63.143048 250.4535 63.143048 
L 175.32536 63.143048 
Q 172.82636 63.143048 172.82636 65.642048 
L 172.82636 119.4135 
Q 172.82636 121.9125 175.32536 121.9125 
z
" style="fill: #ffffff; opacity: 0.8; stroke: #cccccc; stroke-linejoin: miter"/>
    </g>
    <g id="line2d_9">
     <path d="M 177.82436 73.262046 
L 190.31936 73.262046 
L 202.81436 73.262046 
" style="fill: none; stroke: #1f77b4; stroke-width: 2; stroke-linecap: square"/>
    </g>
    <g id="text_8">
     <!-- Box 1 -->
     <g transform="translate(212.81036 77.635296) scale(0.12495 -0.12495)">
      <defs>
       <path id="DejaVuSans-42" d="M 1259 2228 
L 1259 519 
L 2272 519 
Q 2781 519 3026 730 
Q 3272 941 3272 1375 
Q 3272 1813 3026 2020 
Q 2781 2228 2272 2228 
L 1259 2228 
z
M 1259 4147 
L 1259 2741 
L 2194 2741 
Q 2656 2741 2882 2914 
Q 3109 3088 3109 3444 
Q 3109 3797 2882 3972 
Q 2656 4147 2194 4147 
L 1259 4147 
z
M 628 4666 
L 2241 4666 
Q 2963 4666 3353 4366 
Q 3744 4066 3744 3513 
Q 3744 3084 3544 2831 
Q 3344 2578 2956 2516 
Q 3422 2416 3680 2098 
Q 3938 1781 3938 1306 
Q 3938 681 3513 340 
Q 3088 0 2303 0 
L 628 0 
L 628 4666 
z
" transform="scale(0.015625)"/>
       <path id="DejaVuSans-78" d="M 3513 3500 
L 2247 1797 
L 3578 0 
L 2900 0 
L 1881 1375 
L 863 0 
L 184 0 
L 1544 1831 
L 300 3500 
L 978 3500 
L 1906 2253 
L 2834 3500 
L 3513 3500 
z
" transform="scale(0.015625)"/>
      </defs>
      <use xlink:href="#DejaVuSans-42"/>
      <use xlink:href="#DejaVuSans-6f" x="68.603516"/>
      <use xlink:href="#DejaVuSans-78" x="126.660156"/>
      <use xlink:href="#DejaVuSans-20" x="185.839844"/>
      <use xlink:href="#DejaVuSans-31" x="217.626953"/>
     </g>
    </g>
    <g id="line2d_10">
     <path d="M 177.82436 91.602363 
L 190.31936 91.602363 
L 202.81436 91.602363 
" style="fill: none; stroke: #ff7f0e; stroke-width: 2; stroke-linecap: square"/>
    </g>
    <g id="text_9">
     <!-- Box 2 -->
     <g transform="translate(212.81036 95.975613) scale(0.12495 -0.12495)">
      <defs>
       <path id="DejaVuSans-32" d="M 1228 531 
L 3431 531 
L 3431 0 
L 469 0 
L 469 531 
Q 828 903 1448 1529 
Q 2069 2156 2228 2338 
Q 2531 2678 2651 2914 
Q 2772 3150 2772 3378 
Q 2772 3750 2511 3984 
Q 2250 4219 1831 4219 
Q 1534 4219 1204 4116 
Q 875 4013 500 3803 
L 500 4441 
Q 881 4594 1212 4672 
Q 1544 4750 1819 4750 
Q 2544 4750 2975 4387 
Q 3406 4025 3406 3419 
Q 3406 3131 3298 2873 
Q 3191 2616 2906 2266 
Q 2828 2175 2409 1742 
Q 1991 1309 1228 531 
z
" transform="scale(0.015625)"/>
      </defs>
      <use xlink:href="#DejaVuSans-42"/>
      <use xlink:href="#DejaVuSans-6f" x="68.603516"/>
      <use xlink:href="#DejaVuSans-78" x="126.660156"/>
      <use xlink:href="#DejaVuSans-20" x="185.839844"/>
      <use xlink:href="#DejaVuSans-32" x="217.626953"/>
     </g>
    </g>
    <g id="line2d_11">
     <path d="M 177.82436 109.94268 
L 190.31936 109.94268 
L 202.81436 109.94268 
" style="fill: none; stroke: #2ca02c; stroke-width: 2; stroke-linecap: square"/>
    </g>
    <g id="text_10">
     <!-- Box 3 -->
     <g transform="translate(212.81036 114.31593) scale(0.12495 -0.12495)">
      <defs>
       <path id="DejaVuSans-33" d="M 2597 2516 
Q 3050 2419 3304 2112 
Q 3559 1806 3559 1356 
Q 3559 666 3084 287 
Q 2609 -91 1734 -91 
Q 1441 -91 1130 -33 
Q 819 25 488 141 
L 488 750 
Q 750 597 1062 519 
Q 1375 441 1716 441 
Q 2309 441 2620 675 
Q 2931 909 2931 1356 
Q 2931 1769 2642 2001 
Q 2353 2234 1838 2234 
L 1294 2234 
L 1294 2753 
L 1863 2753 
Q 2328 2753 2575 2939 
Q 2822 3125 2822 3475 
Q 2822 3834 2567 4026 
Q 2313 4219 1838 4219 
Q 1578 4219 1281 4162 
Q 984 4106 628 3988 
L 628 4550 
Q 988 4650 1302 4700 
Q 1616 4750 1894 4750 
Q 2613 4750 3031 4423 
Q 3450 4097 3450 3541 
Q 3450 3153 3228 2886 
Q 3006 2619 2597 2516 
z
" transform="scale(0.015625)"/>
      </defs>
      <use xlink:href="#DejaVuSans-42"/>
      <use xlink:href="#DejaVuSans-6f" x="68.603516"/>
      <use xlink:href="#DejaVuSans-78" x="126.660156"/>
      <use xlink:href="#DejaVuSans-20" x="185.839844"/>
      <use xlink:href="#DejaVuSans-33" x="217.626953"/>
     </g>
    </g>
   </g>
  </g>
 </g>
 <defs>
  <clipPath id="pe56682171c">
   <rect x="36" y="17.28" width="223.2" height="110.88"/>
  </clipPath>
 </defs>
</svg>
