<?xml version="1.0" encoding="utf-8" standalone="no"?>
<!DOCTYPE svg PUBLIC "-//W3C//DTD SVG 1.1//EN"
  "http://www.w3.org/Graphics/SVG/1.1/DTD/svg11.dtd">
<svg xmlns:xlink="http://www.w3.org/1999/xlink" width="288pt" height="180pt" viewBox="0 0 288 180" xmlns="http://www.w3.org/2000/svg" version="1.1">
 <metadata>
  <rdf:RDF xmlns:dc="http://purl.org/dc/elements/1.1/" xmlns:cc="http://creativecommons.org/ns#" xmlns:rdf="http://www.w3.org/1999/02/22-rdf-syntax-ns#">
   <cc:Work>
    <dc:type rdf:resource="http://purl.org/dc/dcmitype/StillImage"/>
    <dc:date>2025-06-17T17:42:45.342791</dc:date>
    <dc:format>image/svg+xml</dc:format>
    <dc:creator>
     <cc:Agent>
      <dc:title>Matplotlib v3.10.3, https://matplotlib.org/</dc:title>
     </cc:Agent>
    </dc:creator>
   </cc:Work>
  </rdf:RDF>
 </metadata>
 <defs>
  <style type="text/css">*{stroke-linejoin: round; stroke-linecap: butt}</style>
 </defs>
 <g id="figure_1">
  <g id="patch_1">
   <path d="M 0 180 
L 288 180 
L 288 0 
L 0 0 
z
" style="fill: #ffffff"/>
  </g>
  <g id="axes_1">
   <g id="patch_2">
    <path d="M 36 160.2 
L 259.2 160.2 
L 259.2 21.6 
L 36 21.6 
z
" style="fill: #ffffff"/>
   </g>
   <g id="matplotlib.axis_1">
    <g id="xtick_1">
     <g id="line2d_1">
      <defs>
       <path id="m507f023277" d="M 0 0 
L 0 3.5 
" style="stroke: #000000; stroke-width: 0.8"/>
      </defs>
      <g>
       <use xlink:href="#m507f023277" x="36" y="160.2" style="stroke: #000000; stroke-width: 0.8"/>
      </g>
     </g>
     <g id="text_1">
      <!-- 0 -->
      <g transform="translate(32.025028 176.694248) scale(0.12495 -0.12495)">
       <defs>
        <path id="DejaVuSans-30" d="M 2034 4250 
Q 1547 4250 1301 3770 
Q 1056 3291 1056 2328 
Q 1056 1369 1301 889 
Q 1547 409 2034 409 
Q 2525 409 2770 889 
Q 3016 1369 3016 2328 
Q 3016 3291 2770 3770 
Q 2525 4250 2034 4250 
z
M 2034 4750 
Q 2819 4750 3233 4129 
Q 3647 3509 3647 2328 
Q 3647 1150 3233 529 
Q 2819 -91 2034 -91 
Q 1250 -91 836 529 
Q 422 1150 422 2328 
Q 422 3509 836 4129 
Q 1250 4750 2034 4750 
z
" transform="scale(0.015625)"/>
       </defs>
       <use xlink:href="#DejaVuSans-30"/>
      </g>
     </g>
    </g>
    <g id="xtick_2">
     <g id="line2d_2">
      <g>
       <use xlink:href="#m507f023277" x="142.285714" y="160.2" style="stroke: #000000; stroke-width: 0.8"/>
      </g>
     </g>
     <g id="text_2">
      <!-- 50 -->
      <g transform="translate(134.335771 176.694248) scale(0.12495 -0.12495)">
       <defs>
        <path id="DejaVuSans-35" d="M 691 4666 
L 3169 4666 
L 3169 4134 
L 1269 4134 
L 1269 2991 
Q 1406 3038 1543 3061 
Q 1681 3084 1819 3084 
Q 2600 3084 3056 2656 
Q 3513 2228 3513 1497 
Q 3513 744 3044 326 
Q 2575 -91 1722 -91 
Q 1428 -91 1123 -41 
Q 819 9 494 109 
L 494 744 
Q 775 591 1075 516 
Q 1375 441 1709 441 
Q 2250 441 2565 725 
Q 2881 1009 2881 1497 
Q 2881 1984 2565 2268 
Q 2250 2553 1709 2553 
Q 1456 2553 1204 2497 
Q 953 2441 691 2322 
L 691 4666 
z
" transform="scale(0.015625)"/>
       </defs>
       <use xlink:href="#DejaVuSans-35"/>
       <use xlink:href="#DejaVuSans-30" transform="translate(63.623047 0)"/>
      </g>
     </g>
    </g>
    <g id="xtick_3">
     <g id="line2d_3">
      <g>
       <use xlink:href="#m507f023277" x="248.571429" y="160.2" style="stroke: #000000; stroke-width: 0.8"/>
      </g>
     </g>
     <g id="text_3">
      <!-- 100 -->
      <g transform="translate(236.646513 176.694248) scale(0.12495 -0.12495)">
       <defs>
        <path id="DejaVuSans-31" d="M 794 531 
L 1825 531 
L 1825 4091 
L 703 3866 
L 703 4441 
L 1819 4666 
L 2450 4666 
L 2450 531 
L 3481 531 
L 3481 0 
L 794 0 
L 794 531 
z
" transform="scale(0.015625)"/>
       </defs>
       <use xlink:href="#DejaVuSans-31"/>
       <use xlink:href="#DejaVuSans-30" transform="translate(63.623047 0)"/>
       <use xlink:href="#DejaVuSans-30" transform="translate(127.246094 0)"/>
      </g>
     </g>
    </g>
    <g id="text_4">
     <!-- Time since push (sec) -->
     <g transform="translate(65.94375 194.690473) scale(0.15 -0.15)">
      <defs>
       <path id="DejaVuSans-54" d="M -19 4666 
L 3928 4666 
L 3928 4134 
L 2272 4134 
L 2272 0 
L 1638 0 
L 1638 4134 
L -19 4134 
L -19 4666 
z
" transform="scale(0.015625)"/>
       <path id="DejaVuSans-69" d="M 603 3500 
L 1178 3500 
L 1178 0 
L 603 0 
L 603 3500 
z
M 603 4863 
L 1178 4863 
L 1178 4134 
L 603 4134 
L 603 4863 
z
" transform="scale(0.015625)"/>
       <path id="DejaVuSans-6d" d="M 3328 2828 
Q 3544 3216 3844 3400 
Q 4144 3584 4550 3584 
Q 5097 3584 5394 3201 
Q 5691 2819 5691 2113 
L 5691 0 
L 5113 0 
L 5113 2094 
Q 5113 2597 4934 2840 
Q 4756 3084 4391 3084 
Q 3944 3084 3684 2787 
Q 3425 2491 3425 1978 
L 3425 0 
L 2847 0 
L 2847 2094 
Q 2847 2600 2669 2842 
Q 2491 3084 2119 3084 
Q 1678 3084 1418 2786 
Q 1159 2488 1159 1978 
L 1159 0 
L 581 0 
L 581 3500 
L 1159 3500 
L 1159 2956 
Q 1356 3278 1631 3431 
Q 1906 3584 2284 3584 
Q 2666 3584 2933 3390 
Q 3200 3197 3328 2828 
z
" transform="scale(0.015625)"/>
       <path id="DejaVuSans-65" d="M 3597 1894 
L 3597 1613 
L 953 1613 
Q 991 1019 1311 708 
Q 1631 397 2203 397 
Q 2534 397 2845 478 
Q 3156 559 3463 722 
L 3463 178 
Q 3153 47 2828 -22 
Q 2503 -91 2169 -91 
Q 1331 -91 842 396 
Q 353 884 353 1716 
Q 353 2575 817 3079 
Q 1281 3584 2069 3584 
Q 2775 3584 3186 3129 
Q 3597 2675 3597 1894 
z
M 3022 2063 
Q 3016 2534 2758 2815 
Q 2500 3097 2075 3097 
Q 1594 3097 1305 2825 
Q 1016 2553 972 2059 
L 3022 2063 
z
" transform="scale(0.015625)"/>
       <path id="DejaVuSans-20" transform="scale(0.015625)"/>
       <path id="DejaVuSans-73" d="M 2834 3397 
L 2834 2853 
Q 2591 2978 2328 3040 
Q 2066 3103 1784 3103 
Q 1356 3103 1142 2972 
Q 928 2841 928 2578 
Q 928 2378 1081 2264 
Q 1234 2150 1697 2047 
L 1894 2003 
Q 2506 1872 2764 1633 
Q 3022 1394 3022 966 
Q 3022 478 2636 193 
Q 2250 -91 1575 -91 
Q 1294 -91 989 -36 
Q 684 19 347 128 
L 347 722 
Q 666 556 975 473 
Q 1284 391 1588 391 
Q 1994 391 2212 530 
Q 2431 669 2431 922 
Q 2431 1156 2273 1281 
Q 2116 1406 1581 1522 
L 1381 1569 
Q 847 1681 609 1914 
Q 372 2147 372 2553 
Q 372 3047 722 3315 
Q 1072 3584 1716 3584 
Q 2034 3584 2315 3537 
Q 2597 3491 2834 3397 
z
" transform="scale(0.015625)"/>
       <path id="DejaVuSans-6e" d="M 3513 2113 
L 3513 0 
L 2938 0 
L 2938 2094 
Q 2938 2591 2744 2837 
Q 2550 3084 2163 3084 
Q 1697 3084 1428 2787 
Q 1159 2491 1159 1978 
L 1159 0 
L 581 0 
L 581 3500 
L 1159 3500 
L 1159 2956 
Q 1366 3272 1645 3428 
Q 1925 3584 2291 3584 
Q 2894 3584 3203 3211 
Q 3513 2838 3513 2113 
z
" transform="scale(0.015625)"/>
       <path id="DejaVuSans-63" d="M 3122 3366 
L 3122 2828 
Q 2878 2963 2633 3030 
Q 2388 3097 2138 3097 
Q 1578 3097 1268 2742 
Q 959 2388 959 1747 
Q 959 1106 1268 751 
Q 1578 397 2138 397 
Q 2388 397 2633 464 
Q 2878 531 3122 666 
L 3122 134 
Q 2881 22 2623 -34 
Q 2366 -91 2075 -91 
Q 1284 -91 818 406 
Q 353 903 353 1747 
Q 353 2603 823 3093 
Q 1294 3584 2113 3584 
Q 2378 3584 2631 3529 
Q 2884 3475 3122 3366 
z
" transform="scale(0.015625)"/>
       <path id="DejaVuSans-70" d="M 1159 525 
L 1159 -1331 
L 581 -1331 
L 581 3500 
L 1159 3500 
L 1159 2969 
Q 1341 3281 1617 3432 
Q 1894 3584 2278 3584 
Q 2916 3584 3314 3078 
Q 3713 2572 3713 1747 
Q 3713 922 3314 415 
Q 2916 -91 2278 -91 
Q 1894 -91 1617 61 
Q 1341 213 1159 525 
z
M 3116 1747 
Q 3116 2381 2855 2742 
Q 2594 3103 2138 3103 
Q 1681 3103 1420 2742 
Q 1159 2381 1159 1747 
Q 1159 1113 1420 752 
Q 1681 391 2138 391 
Q 2594 391 2855 752 
Q 3116 1113 3116 1747 
z
" transform="scale(0.015625)"/>
       <path id="DejaVuSans-75" d="M 544 1381 
L 544 3500 
L 1119 3500 
L 1119 1403 
Q 1119 906 1312 657 
Q 1506 409 1894 409 
Q 2359 409 2629 706 
Q 2900 1003 2900 1516 
L 2900 3500 
L 3475 3500 
L 3475 0 
L 2900 0 
L 2900 538 
Q 2691 219 2414 64 
Q 2138 -91 1772 -91 
Q 1169 -91 856 284 
Q 544 659 544 1381 
z
M 1991 3584 
L 1991 3584 
z
" transform="scale(0.015625)"/>
       <path id="DejaVuSans-68" d="M 3513 2113 
L 3513 0 
L 2938 0 
L 2938 2094 
Q 2938 2591 2744 2837 
Q 2550 3084 2163 3084 
Q 1697 3084 1428 2787 
Q 1159 2491 1159 1978 
L 1159 0 
L 581 0 
L 581 4863 
L 1159 4863 
L 1159 2956 
Q 1366 3272 1645 3428 
Q 1925 3584 2291 3584 
Q 2894 3584 3203 3211 
Q 3513 2838 3513 2113 
z
" transform="scale(0.015625)"/>
       <path id="DejaVuSans-28" d="M 1984 4856 
Q 1566 4138 1362 3434 
Q 1159 2731 1159 2009 
Q 1159 1288 1364 580 
Q 1569 -128 1984 -844 
L 1484 -844 
Q 1016 -109 783 600 
Q 550 1309 550 2009 
Q 550 2706 781 3412 
Q 1013 4119 1484 4856 
L 1984 4856 
z
" transform="scale(0.015625)"/>
       <path id="DejaVuSans-29" d="M 513 4856 
L 1013 4856 
Q 1481 4119 1714 3412 
Q 1947 2706 1947 2009 
Q 1947 1309 1714 600 
Q 1481 -109 1013 -844 
L 513 -844 
Q 928 -128 1133 580 
Q 1338 1288 1338 2009 
Q 1338 2731 1133 3434 
Q 928 4138 513 4856 
z
" transform="scale(0.015625)"/>
      </defs>
      <use xlink:href="#DejaVuSans-54"/>
      <use xlink:href="#DejaVuSans-69" transform="translate(57.958984 0)"/>
      <use xlink:href="#DejaVuSans-6d" transform="translate(85.742188 0)"/>
      <use xlink:href="#DejaVuSans-65" transform="translate(183.154297 0)"/>
      <use xlink:href="#DejaVuSans-20" transform="translate(244.677734 0)"/>
      <use xlink:href="#DejaVuSans-73" transform="translate(276.464844 0)"/>
      <use xlink:href="#DejaVuSans-69" transform="translate(328.564453 0)"/>
      <use xlink:href="#DejaVuSans-6e" transform="translate(356.347656 0)"/>
      <use xlink:href="#DejaVuSans-63" transform="translate(419.726562 0)"/>
      <use xlink:href="#DejaVuSans-65" transform="translate(474.707031 0)"/>
      <use xlink:href="#DejaVuSans-20" transform="translate(536.230469 0)"/>
      <use xlink:href="#DejaVuSans-70" transform="translate(568.017578 0)"/>
      <use xlink:href="#DejaVuSans-75" transform="translate(631.494141 0)"/>
      <use xlink:href="#DejaVuSans-73" transform="translate(694.873047 0)"/>
      <use xlink:href="#DejaVuSans-68" transform="translate(746.972656 0)"/>
      <use xlink:href="#DejaVuSans-20" transform="translate(810.351562 0)"/>
      <use xlink:href="#DejaVuSans-28" transform="translate(842.138672 0)"/>
      <use xlink:href="#DejaVuSans-73" transform="translate(881.152344 0)"/>
      <use xlink:href="#DejaVuSans-65" transform="translate(933.251953 0)"/>
      <use xlink:href="#DejaVuSans-63" transform="translate(994.775391 0)"/>
      <use xlink:href="#DejaVuSans-29" transform="translate(1049.755859 0)"/>
     </g>
    </g>
   </g>
   <g id="matplotlib.axis_2">
    <g id="ytick_1">
     <g id="line2d_4">
      <defs>
       <path id="m8b09ccc069" d="M 0 0 
L -3.5 0 
" style="stroke: #000000; stroke-width: 0.8"/>
      </defs>
      <g>
       <use xlink:href="#m8b09ccc069" x="36" y="160.2" style="stroke: #000000; stroke-width: 0.8"/>
      </g>
     </g>
     <g id="text_5">
      <!-- 0 -->
      <g transform="translate(21.050056 164.947124) scale(0.12495 -0.12495)">
       <use xlink:href="#DejaVuSans-30"/>
      </g>
     </g>
    </g>
    <g id="ytick_2">
     <g id="line2d_5">
      <g>
       <use xlink:href="#m8b09ccc069" x="36" y="21.6" style="stroke: #000000; stroke-width: 0.8"/>
      </g>
     </g>
     <g id="text_6">
      <!-- 1 -->
      <g transform="translate(21.050056 26.347124) scale(0.12495 -0.12495)">
       <use xlink:href="#DejaVuSans-31"/>
      </g>
     </g>
    </g>
    <g id="text_7">
     <!-- Food availability -->
     <g transform="translate(13.930525 152.050781) rotate(-90) scale(0.15 -0.15)">
      <defs>
       <path id="DejaVuSans-46" d="M 628 4666 
L 3309 4666 
L 3309 4134 
L 1259 4134 
L 1259 2759 
L 3109 2759 
L 3109 2228 
L 1259 2228 
L 1259 0 
L 628 0 
L 628 4666 
z
" transform="scale(0.015625)"/>
       <path id="DejaVuSans-6f" d="M 1959 3097 
Q 1497 3097 1228 2736 
Q 959 2375 959 1747 
Q 959 1119 1226 758 
Q 1494 397 1959 397 
Q 2419 397 2687 759 
Q 2956 1122 2956 1747 
Q 2956 2369 2687 2733 
Q 2419 3097 1959 3097 
z
M 1959 3584 
Q 2709 3584 3137 3096 
Q 3566 2609 3566 1747 
Q 3566 888 3137 398 
Q 2709 -91 1959 -91 
Q 1206 -91 779 398 
Q 353 888 353 1747 
Q 353 2609 779 3096 
Q 1206 3584 1959 3584 
z
" transform="scale(0.015625)"/>
       <path id="DejaVuSans-64" d="M 2906 2969 
L 2906 4863 
L 3481 4863 
L 3481 0 
L 2906 0 
L 2906 525 
Q 2725 213 2448 61 
Q 2172 -91 1784 -91 
Q 1150 -91 751 415 
Q 353 922 353 1747 
Q 353 2572 751 3078 
Q 1150 3584 1784 3584 
Q 2172 3584 2448 3432 
Q 2725 3281 2906 2969 
z
M 947 1747 
Q 947 1113 1208 752 
Q 1469 391 1925 391 
Q 2381 391 2643 752 
Q 2906 1113 2906 1747 
Q 2906 2381 2643 2742 
Q 2381 3103 1925 3103 
Q 1469 3103 1208 2742 
Q 947 2381 947 1747 
z
" transform="scale(0.015625)"/>
       <path id="DejaVuSans-61" d="M 2194 1759 
Q 1497 1759 1228 1600 
Q 959 1441 959 1056 
Q 959 750 1161 570 
Q 1363 391 1709 391 
Q 2188 391 2477 730 
Q 2766 1069 2766 1631 
L 2766 1759 
L 2194 1759 
z
M 3341 1997 
L 3341 0 
L 2766 0 
L 2766 531 
Q 2569 213 2275 61 
Q 1981 -91 1556 -91 
Q 1019 -91 701 211 
Q 384 513 384 1019 
Q 384 1609 779 1909 
Q 1175 2209 1959 2209 
L 2766 2209 
L 2766 2266 
Q 2766 2663 2505 2880 
Q 2244 3097 1772 3097 
Q 1472 3097 1187 3025 
Q 903 2953 641 2809 
L 641 3341 
Q 956 3463 1253 3523 
Q 1550 3584 1831 3584 
Q 2591 3584 2966 3190 
Q 3341 2797 3341 1997 
z
" transform="scale(0.015625)"/>
       <path id="DejaVuSans-76" d="M 191 3500 
L 800 3500 
L 1894 563 
L 2988 3500 
L 3597 3500 
L 2284 0 
L 1503 0 
L 191 3500 
z
" transform="scale(0.015625)"/>
       <path id="DejaVuSans-6c" d="M 603 4863 
L 1178 4863 
L 1178 0 
L 603 0 
L 603 4863 
z
" transform="scale(0.015625)"/>
       <path id="DejaVuSans-62" d="M 3116 1747 
Q 3116 2381 2855 2742 
Q 2594 3103 2138 3103 
Q 1681 3103 1420 2742 
Q 1159 2381 1159 1747 
Q 1159 1113 1420 752 
Q 1681 391 2138 391 
Q 2594 391 2855 752 
Q 3116 1113 3116 1747 
z
M 1159 2969 
Q 1341 3281 1617 3432 
Q 1894 3584 2278 3584 
Q 2916 3584 3314 3078 
Q 3713 2572 3713 1747 
Q 3713 922 3314 415 
Q 2916 -91 2278 -91 
Q 1894 -91 1617 61 
Q 1341 213 1159 525 
L 1159 0 
L 581 0 
L 581 4863 
L 1159 4863 
L 1159 2969 
z
" transform="scale(0.015625)"/>
       <path id="DejaVuSans-74" d="M 1172 4494 
L 1172 3500 
L 2356 3500 
L 2356 3053 
L 1172 3053 
L 1172 1153 
Q 1172 725 1289 603 
Q 1406 481 1766 481 
L 2356 481 
L 2356 0 
L 1766 0 
Q 1100 0 847 248 
Q 594 497 594 1153 
L 594 3053 
L 172 3053 
L 172 3500 
L 594 3500 
L 594 4494 
L 1172 4494 
z
" transform="scale(0.015625)"/>
       <path id="DejaVuSans-79" d="M 2059 -325 
Q 1816 -950 1584 -1140 
Q 1353 -1331 966 -1331 
L 506 -1331 
L 506 -850 
L 844 -850 
Q 1081 -850 1212 -737 
Q 1344 -625 1503 -206 
L 1606 56 
L 191 3500 
L 800 3500 
L 1894 763 
L 2988 3500 
L 3597 3500 
L 2059 -325 
z
" transform="scale(0.015625)"/>
      </defs>
      <use xlink:href="#DejaVuSans-46"/>
      <use xlink:href="#DejaVuSans-6f" transform="translate(53.894531 0)"/>
      <use xlink:href="#DejaVuSans-6f" transform="translate(115.076172 0)"/>
      <use xlink:href="#DejaVuSans-64" transform="translate(176.257812 0)"/>
      <use xlink:href="#DejaVuSans-20" transform="translate(239.734375 0)"/>
      <use xlink:href="#DejaVuSans-61" transform="translate(271.521484 0)"/>
      <use xlink:href="#DejaVuSans-76" transform="translate(332.800781 0)"/>
      <use xlink:href="#DejaVuSans-61" transform="translate(391.980469 0)"/>
      <use xlink:href="#DejaVuSans-69" transform="translate(453.259766 0)"/>
      <use xlink:href="#DejaVuSans-6c" transform="translate(481.042969 0)"/>
      <use xlink:href="#DejaVuSans-61" transform="translate(508.826172 0)"/>
      <use xlink:href="#DejaVuSans-62" transform="translate(570.105469 0)"/>
      <use xlink:href="#DejaVuSans-69" transform="translate(633.582031 0)"/>
      <use xlink:href="#DejaVuSans-6c" transform="translate(661.365234 0)"/>
      <use xlink:href="#DejaVuSans-69" transform="translate(689.148438 0)"/>
      <use xlink:href="#DejaVuSans-74" transform="translate(716.931641 0)"/>
      <use xlink:href="#DejaVuSans-79" transform="translate(756.140625 0)"/>
     </g>
    </g>
   </g>
   <g id="line2d_6">
    <path d="M 36 160.2 
L 38.147186 156.257169 
L 40.294372 152.426501 
L 42.441558 148.704807 
L 44.588745 145.088986 
L 46.735931 141.576026 
L 48.883117 138.163002 
L 51.030303 134.847069 
L 53.177489 131.625467 
L 55.324675 128.495511 
L 57.471861 125.454595 
L 59.619048 122.500186 
L 61.766234 119.629822 
L 63.91342 116.841113 
L 66.060606 114.131736 
L 68.207792 111.499435 
L 70.354978 108.942016 
L 72.502165 106.457349 
L 74.649351 104.043365 
L 76.796537 101.698052 
L 78.943723 99.419459 
L 81.090909 97.205685 
L 83.238095 95.054888 
L 85.385281 92.965276 
L 87.532468 90.935109 
L 89.679654 88.962694 
L 91.82684 87.04639 
L 93.974026 85.1846 
L 96.121212 83.375774 
L 98.268398 81.618404 
L 100.415584 79.911027 
L 102.562771 78.252221 
L 104.709957 76.640604 
L 106.857143 75.074833 
L 109.004329 73.553605 
L 111.151515 72.075652 
L 113.298701 70.639743 
L 115.445887 69.244682 
L 117.593074 67.889307 
L 119.74026 66.57249 
L 121.887446 65.293132 
L 124.034632 64.050169 
L 126.181818 62.842566 
L 128.329004 61.669316 
L 130.47619 60.529442 
L 132.623377 59.421994 
L 134.770563 58.346051 
L 136.917749 57.300715 
L 139.064935 56.285117 
L 141.212121 55.298411 
L 143.359307 54.339773 
L 145.506494 53.408407 
L 147.65368 52.503535 
L 149.800866 51.624405 
L 151.948052 50.770284 
L 154.095238 49.940461 
L 156.242424 49.134244 
L 158.38961 48.350962 
L 160.536797 47.589963 
L 162.683983 46.850612 
L 164.831169 46.132294 
L 166.978355 45.43441 
L 169.125541 44.756379 
L 171.272727 44.097637 
L 173.419913 43.457634 
L 175.5671 42.835838 
L 177.714286 42.23173 
L 179.861472 41.644808 
L 182.008658 41.074582 
L 184.155844 40.520578 
L 186.30303 39.982333 
L 188.450216 39.459401 
L 190.597403 38.951345 
L 192.744589 38.457741 
L 194.891775 37.97818 
L 197.038961 37.512261 
L 199.186147 37.059596 
L 201.333333 36.619808 
L 203.480519 36.192531 
L 205.627706 35.777409 
L 207.774892 35.374097 
L 209.922078 34.982257 
L 212.069264 34.601565 
L 214.21645 34.231702 
L 216.363636 33.872361 
L 218.510823 33.523242 
L 220.658009 33.184055 
L 222.805195 32.854517 
L 224.952381 32.534354 
L 227.099567 32.223298 
L 229.246753 31.921091 
L 231.393939 31.627481 
L 233.541126 31.342224 
L 235.688312 31.065082 
L 237.835498 30.795823 
L 239.982684 30.534224 
L 242.12987 30.280068 
L 244.277056 30.033141 
L 246.424242 29.793239 
L 248.571429 29.560161 
" clip-path="url(#pec6c71534c)" style="fill: none; stroke: #0000ff; stroke-width: 2; stroke-linecap: square"/>
   </g>
   <g id="line2d_7">
    <path d="M 36 160.2 
L 38.147186 153.691127 
L 40.294372 147.48792 
L 42.441558 141.576026 
L 44.588745 135.941764 
L 46.735931 130.572096 
L 48.883117 125.454595 
L 51.030303 120.577421 
L 53.177489 115.929286 
L 55.324675 111.499435 
L 57.471861 107.277616 
L 59.619048 103.254061 
L 61.766234 99.419459 
L 63.91342 95.764935 
L 66.060606 92.282033 
L 68.207792 88.962694 
L 70.354978 85.799236 
L 72.502165 82.78434 
L 74.649351 79.911027 
L 76.796537 77.17265 
L 78.943723 74.562871 
L 81.090909 72.075652 
L 83.238095 69.705236 
L 85.385281 67.446139 
L 87.532468 65.293132 
L 89.679654 63.241234 
L 91.82684 61.285697 
L 93.974026 59.421994 
L 96.121212 57.645814 
L 98.268398 55.953046 
L 100.415584 54.339773 
L 102.562771 52.802262 
L 104.709957 51.336955 
L 106.857143 49.940461 
L 109.004329 48.609548 
L 111.151515 47.341138 
L 113.298701 46.132294 
L 115.445887 44.980219 
L 117.593074 43.882247 
L 119.74026 42.835838 
L 121.887446 41.838569 
L 124.034632 40.888135 
L 126.181818 39.982333 
L 128.329004 39.11907 
L 130.47619 38.296347 
L 132.623377 37.512261 
L 134.770563 36.764996 
L 136.917749 36.052824 
L 139.064935 35.374097 
L 141.212121 34.727244 
L 143.359307 34.110768 
L 145.506494 33.523242 
L 147.65368 32.963308 
L 149.800866 32.429669 
L 151.948052 31.921091 
L 154.095238 31.436397 
L 156.242424 30.974464 
L 158.38961 30.534224 
L 160.536797 30.114659 
L 162.683983 29.714798 
L 164.831169 29.333714 
L 166.978355 28.970527 
L 169.125541 28.624395 
L 171.272727 28.294518 
L 173.419913 27.980133 
L 175.5671 27.680512 
L 177.714286 27.394962 
L 179.861472 27.122821 
L 182.008658 26.863461 
L 184.155844 26.616281 
L 186.30303 26.380708 
L 188.450216 26.156199 
L 190.597403 25.942233 
L 192.744589 25.738314 
L 194.891775 25.543973 
L 197.038961 25.358758 
L 199.186147 25.18224 
L 201.333333 25.014013 
L 203.480519 24.853685 
L 205.627706 24.700887 
L 207.774892 24.555265 
L 209.922078 24.416481 
L 212.069264 24.284215 
L 214.21645 24.15816 
L 216.363636 24.038024 
L 218.510823 23.923531 
L 220.658009 23.814414 
L 222.805195 23.710422 
L 224.952381 23.611313 
L 227.099567 23.516859 
L 229.246753 23.42684 
L 231.393939 23.341049 
L 233.541126 23.259286 
L 235.688312 23.181364 
L 237.835498 23.1071 
L 239.982684 23.036325 
L 242.12987 22.968873 
L 244.277056 22.904588 
L 246.424242 22.843323 
L 248.571429 22.784934 
" clip-path="url(#pec6c71534c)" style="fill: none; stroke: #ffa500; stroke-width: 2; stroke-linecap: square"/>
   </g>
   <g id="line2d_8">
    <path d="M 36 160.2 
L 38.147186 151.173984 
L 40.294372 142.735766 
L 42.441558 134.847069 
L 44.588745 127.472106 
L 46.735931 120.577421 
L 48.883117 114.131736 
L 51.030303 108.105813 
L 53.177489 102.472315 
L 55.324675 97.205685 
L 57.471861 92.282033 
L 59.619048 87.679023 
L 61.766234 83.375774 
L 63.91342 79.352764 
L 66.060606 75.591744 
L 68.207792 72.075652 
L 70.354978 68.788537 
L 72.502165 65.715489 
L 74.649351 62.842566 
L 76.796537 60.156736 
L 78.943723 57.645814 
L 81.090909 55.298411 
L 83.238095 53.103877 
L 85.385281 51.052257 
L 87.532468 49.134244 
L 89.679654 47.341138 
L 91.82684 45.664803 
L 93.974026 44.097637 
L 96.121212 42.632528 
L 98.268398 41.262832 
L 100.415584 39.982333 
L 102.562771 38.785225 
L 104.709957 37.666075 
L 106.857143 36.619808 
L 109.004329 35.641676 
L 111.151515 34.727244 
L 113.298701 33.872361 
L 115.445887 33.073151 
L 117.593074 32.325987 
L 119.74026 31.627481 
L 121.887446 30.974464 
L 124.034632 30.363973 
L 126.181818 29.793239 
L 128.329004 29.259672 
L 130.47619 28.760853 
L 132.623377 28.294518 
L 134.770563 27.858553 
L 136.917749 27.450979 
L 139.064935 27.069947 
L 141.212121 26.713729 
L 143.359307 26.380708 
L 145.506494 26.069375 
L 147.65368 25.778317 
L 149.800866 25.506214 
L 151.948052 25.25183 
L 154.095238 25.014013 
L 156.242424 24.791683 
L 158.38961 24.583832 
L 160.536797 24.389516 
L 162.683983 24.207855 
L 164.831169 24.038024 
L 166.978355 23.879254 
L 169.125541 23.730822 
L 171.272727 23.592057 
L 173.419913 23.462329 
L 175.5671 23.341049 
L 177.714286 23.227667 
L 179.861472 23.121669 
L 182.008658 23.022573 
L 184.155844 22.929932 
L 186.30303 22.843323 
L 188.450216 22.762354 
L 190.597403 22.686658 
L 192.744589 22.615892 
L 194.891775 22.549734 
L 197.038961 22.487885 
L 199.186147 22.430064 
L 201.333333 22.376007 
L 203.480519 22.325472 
L 205.627706 22.278227 
L 207.774892 22.234059 
L 209.922078 22.192767 
L 212.069264 22.154165 
L 214.21645 22.118076 
L 216.363636 22.084337 
L 218.510823 22.052796 
L 220.658009 22.023309 
L 222.805195 21.995742 
L 224.952381 21.96997 
L 227.099567 21.945876 
L 229.246753 21.923352 
L 231.393939 21.902294 
L 233.541126 21.882608 
L 235.688312 21.864204 
L 237.835498 21.846998 
L 239.982684 21.830913 
L 242.12987 21.815875 
L 244.277056 21.801817 
L 246.424242 21.788674 
L 248.571429 21.776387 
" clip-path="url(#pec6c71534c)" style="fill: none; stroke: #ff0000; stroke-width: 2; stroke-linecap: square"/>
   </g>
   <g id="patch_3">
    <path d="M 36 160.2 
L 36 21.6 
" style="fill: none; stroke: #000000; stroke-width: 0.8; stroke-linejoin: miter; stroke-linecap: square"/>
   </g>
   <g id="patch_4">
    <path d="M 36 160.2 
L 259.2 160.2 
" style="fill: none; stroke: #000000; stroke-width: 0.8; stroke-linejoin: miter; stroke-linecap: square"/>
   </g>
   <g id="legend_1">
    <g id="patch_5">
     <path d="M 175.32536 153.9525 
L 250.4535 153.9525 
Q 252.9525 153.9525 252.9525 151.4535 
L 252.9525 97.682048 
Q 252.9525 95.183048 250.4535 95.183048 
L 175.32536 95.183048 
Q 172.82636 95.183048 172.82636 97.682048 
L 172.82636 151.4535 
Q 172.82636 153.9525 175.32536 153.9525 
z
" style="fill: #ffffff; opacity: 0.8; stroke: #cccccc; stroke-linejoin: miter"/>
    </g>
    <g id="line2d_9">
     <path d="M 177.82436 105.302046 
L 190.31936 105.302046 
L 202.81436 105.302046 
" style="fill: none; stroke: #0000ff; stroke-width: 2; stroke-linecap: square"/>
    </g>
    <g id="text_8">
     <!-- Box 1 -->
     <g transform="translate(212.81036 109.675296) scale(0.12495 -0.12495)">
      <defs>
       <path id="DejaVuSans-42" d="M 1259 2228 
L 1259 519 
L 2272 519 
Q 2781 519 3026 730 
Q 3272 941 3272 1375 
Q 3272 1813 3026 2020 
Q 2781 2228 2272 2228 
L 1259 2228 
z
M 1259 4147 
L 1259 2741 
L 2194 2741 
Q 2656 2741 2882 2914 
Q 3109 3088 3109 3444 
Q 3109 3797 2882 3972 
Q 2656 4147 2194 4147 
L 1259 4147 
z
M 628 4666 
L 2241 4666 
Q 2963 4666 3353 4366 
Q 3744 4066 3744 3513 
Q 3744 3084 3544 2831 
Q 3344 2578 2956 2516 
Q 3422 2416 3680 2098 
Q 3938 1781 3938 1306 
Q 3938 681 3513 340 
Q 3088 0 2303 0 
L 628 0 
L 628 4666 
z
" transform="scale(0.015625)"/>
       <path id="DejaVuSans-78" d="M 3513 3500 
L 2247 1797 
L 3578 0 
L 2900 0 
L 1881 1375 
L 863 0 
L 184 0 
L 1544 1831 
L 300 3500 
L 978 3500 
L 1906 2253 
L 2834 3500 
L 3513 3500 
z
" transform="scale(0.015625)"/>
      </defs>
      <use xlink:href="#DejaVuSans-42"/>
      <use xlink:href="#DejaVuSans-6f" transform="translate(68.603516 0)"/>
      <use xlink:href="#DejaVuSans-78" transform="translate(126.660156 0)"/>
      <use xlink:href="#DejaVuSans-20" transform="translate(185.839844 0)"/>
      <use xlink:href="#DejaVuSans-31" transform="translate(217.626953 0)"/>
     </g>
    </g>
    <g id="line2d_10">
     <path d="M 177.82436 123.642363 
L 190.31936 123.642363 
L 202.81436 123.642363 
" style="fill: none; stroke: #ffa500; stroke-width: 2; stroke-linecap: square"/>
    </g>
    <g id="text_9">
     <!-- Box 2 -->
     <g transform="translate(212.81036 128.015613) scale(0.12495 -0.12495)">
      <defs>
       <path id="DejaVuSans-32" d="M 1228 531 
L 3431 531 
L 3431 0 
L 469 0 
L 469 531 
Q 828 903 1448 1529 
Q 2069 2156 2228 2338 
Q 2531 2678 2651 2914 
Q 2772 3150 2772 3378 
Q 2772 3750 2511 3984 
Q 2250 4219 1831 4219 
Q 1534 4219 1204 4116 
Q 875 4013 500 3803 
L 500 4441 
Q 881 4594 1212 4672 
Q 1544 4750 1819 4750 
Q 2544 4750 2975 4387 
Q 3406 4025 3406 3419 
Q 3406 3131 3298 2873 
Q 3191 2616 2906 2266 
Q 2828 2175 2409 1742 
Q 1991 1309 1228 531 
z
" transform="scale(0.015625)"/>
      </defs>
      <use xlink:href="#DejaVuSans-42"/>
      <use xlink:href="#DejaVuSans-6f" transform="translate(68.603516 0)"/>
      <use xlink:href="#DejaVuSans-78" transform="translate(126.660156 0)"/>
      <use xlink:href="#DejaVuSans-20" transform="translate(185.839844 0)"/>
      <use xlink:href="#DejaVuSans-32" transform="translate(217.626953 0)"/>
     </g>
    </g>
    <g id="line2d_11">
     <path d="M 177.82436 141.98268 
L 190.31936 141.98268 
L 202.81436 141.98268 
" style="fill: none; stroke: #ff0000; stroke-width: 2; stroke-linecap: square"/>
    </g>
    <g id="text_10">
     <!-- Box 3 -->
     <g transform="translate(212.81036 146.35593) scale(0.12495 -0.12495)">
      <defs>
       <path id="DejaVuSans-33" d="M 2597 2516 
Q 3050 2419 3304 2112 
Q 3559 1806 3559 1356 
Q 3559 666 3084 287 
Q 2609 -91 1734 -91 
Q 1441 -91 1130 -33 
Q 819 25 488 141 
L 488 750 
Q 750 597 1062 519 
Q 1375 441 1716 441 
Q 2309 441 2620 675 
Q 2931 909 2931 1356 
Q 2931 1769 2642 2001 
Q 2353 2234 1838 2234 
L 1294 2234 
L 1294 2753 
L 1863 2753 
Q 2328 2753 2575 2939 
Q 2822 3125 2822 3475 
Q 2822 3834 2567 4026 
Q 2313 4219 1838 4219 
Q 1578 4219 1281 4162 
Q 984 4106 628 3988 
L 628 4550 
Q 988 4650 1302 4700 
Q 1616 4750 1894 4750 
Q 2613 4750 3031 4423 
Q 3450 4097 3450 3541 
Q 3450 3153 3228 2886 
Q 3006 2619 2597 2516 
z
" transform="scale(0.015625)"/>
      </defs>
      <use xlink:href="#DejaVuSans-42"/>
      <use xlink:href="#DejaVuSans-6f" transform="translate(68.603516 0)"/>
      <use xlink:href="#DejaVuSans-78" transform="translate(126.660156 0)"/>
      <use xlink:href="#DejaVuSans-20" transform="translate(185.839844 0)"/>
      <use xlink:href="#DejaVuSans-33" transform="translate(217.626953 0)"/>
     </g>
    </g>
   </g>
  </g>
 </g>
 <defs>
  <clipPath id="pec6c71534c">
   <rect x="36" y="21.6" width="223.2" height="138.6"/>
  </clipPath>
 </defs>
</svg>
